<?xml version="1.0" standalone="no"?>
<!DOCTYPE svg PUBLIC "-//W3C//DTD SVG 20010904//EN"
 "http://www.w3.org/TR/2001/REC-SVG-20010904/DTD/svg10.dtd">
<svg version="1.0" xmlns="http://www.w3.org/2000/svg"
 width="700.000000pt" height="700.000000pt" viewBox="0 0 700.000000 700.000000"
 preserveAspectRatio="xMidYMid meet">
<metadata>
Created by potrace 1.11, written by Peter Selinger 2001-2013
</metadata>
<g transform="translate(0.000000,700.000000) scale(0.100000,-0.100000)"
fill="#000000" stroke="none">
<path d="M1045 6993 c-281 -35 -525 -153 -711 -345 -161 -164 -261 -354 -311
-588 -17 -81 -18 -204 -18 -2560 0 -2356 1 -2479 18 -2560 50 -234 150 -424
311 -588 159 -164 352 -270 596 -328 71 -17 209 -19 2535 -22 2692 -3 2535 -6
2728 54 345 109 641 405 750 750 60 190 57 34 57 2694 0 2660 3 2504 -57 2694
-109 345 -405 641 -749 749 -191 60 -34 57 -2689 55 -1337 0 -2443 -3 -2460
-5z m4539 -2232 c117 -20 207 -40 319 -72 l107 -32 0 -168 0 -169 -57 27
c-102 46 -308 113 -412 133 -128 25 -338 27 -449 4 -93 -18 -202 -68 -259
-118 -25 -22 -56 -64 -75 -103 -27 -55 -33 -80 -36 -153 -10 -197 67 -301 272
-368 33 -11 171 -43 306 -72 253 -53 381 -90 472 -136 199 -101 327 -255 374
-449 25 -103 22 -306 -5 -408 -94 -354 -418 -537 -949 -537 -218 0 -492 50
-737 133 l-70 24 -3 176 c-1 98 0 177 3 177 3 0 49 -22 103 -49 130 -65 274
-118 407 -149 97 -23 132 -26 290 -26 206 -1 273 12 392 70 167 83 242 232
221 438 -17 163 -124 274 -333 344 -33 12 -160 41 -283 67 -256 52 -410 103
-524 172 -204 123 -300 321 -284 588 11 192 65 316 190 440 109 108 239 175
421 216 119 26 436 26 599 0z m-2754 -166 l0 -145 -455 0 -455 0 0 -1130 0
-1130 -170 0 -170 0 0 1130 0 1130 -455 0 -455 0 0 145 0 145 1080 0 1080 0 0
-145z"/>
</g>
</svg>
